<?xml version="1.0" standalone="no"?><!DOCTYPE svg PUBLIC "-//W3C//DTD SVG 1.1//EN" "http://www.w3.org/Graphics/SVG/1.1/DTD/svg11.dtd"><svg t="1777015042296" class="icon" viewBox="0 0 1024 1024" version="1.1" xmlns="http://www.w3.org/2000/svg" p-id="14870" xmlns:xlink="http://www.w3.org/1999/xlink" width="200" height="200"><path d="M855.9 549.8c0-5.5-1.1-10.9-3.2-15.9s-5.2-9.6-9-13.5c-3.9-3.9-8.5-6.9-13.5-9-5-2.1-10.5-3.2-15.9-3.1h-75.6c-11 0-21.6 4.4-29.3 12.2-7.8 7.8-12.2 18.3-12.2 29.4v226.8c0 22.9 18.6 41.6 41.5 41.6h75.6c23 0 41.6-18.6 41.6-41.6V549.8zM704.7 323v-75.6c0-11-4.4-21.6-12.1-29.4-7.8-7.8-18.3-12.2-29.4-12.2H209.6c-5.5 0-10.9 1.1-15.9 3.2s-9.6 5.2-13.5 9c-3.9 3.9-6.9 8.4-9 13.5-2.1 5-3.2 10.5-3.2 15.9V512c0 11 4.4 21.6 12.2 29.4 7.8 7.8 18.4 12.2 29.4 12.2H512c9 0 17.7 3.6 24.1 10 6.4 6.4 10 15 10 24.1 0 9-3.6 17.7-10 24.1-6.4 6.4-15 10-24.1 10h-41.5v83.1H512c9 0 17.7 3.6 24.1 10 6.4 6.4 10 15 10 24.1 0 9-3.6 17.7-10 24.1-6.4 6.4-15 10-24.1 10H323c-9 0-17.7-3.6-24.1-10-6.4-6.4-10-15-10-24.1 0-9 3.6-17.7 10-24.1 6.4-6.4 15-10 24.1-10h79.4v-83.1H209.6c-29.1 0-56.9-11.6-77.5-32.1-20.5-20.8-32.1-48.6-32.1-77.7V247.4c0-29.1 11.5-57 32.1-77.5 20.6-20.6 48.4-32.1 77.5-32.1h453.5c29 0 56.9 11.6 77.4 32.2 20.5 20.6 32.1 48.4 32.1 77.5V323c0 9-3.6 17.7-10 24.1-6.4 6.4-15 10-24.1 10-9 0-17.7-3.6-24-10-6.3-6.4-9.9-15.1-9.8-24.1zM924 776.6c0 14.4-2.8 28.7-8.3 42-5.5 13.3-13.6 25.4-23.8 35.6-10.2 10.2-22.3 18.2-35.6 23.8-13.3 5.5-27.6 8.3-42 8.3h-75.6c-29.1 0-56.9-11.6-77.5-32.1-20.5-20.6-32.1-48.4-32.1-77.5V549.8c0-29.1 11.5-56.9 32.1-77.5 20.5-20.5 48.4-32.1 77.4-32.1h75.6c14.4 0 28.7 2.8 42 8.3 13.3 5.5 25.4 13.6 35.6 23.7 10.2 10.2 18.3 22.3 23.8 35.6s8.4 27.6 8.4 41.9v226.9z" p-id="14871" fill="#1296db"></path></svg>